<svg xmlns="http://www.w3.org/2000/svg" width="20" height="20" fill="none">
    <path d="M10 17.05L8.95 16.1C4.95 12.47 2.5 10.24 2.5 7.5C2.5 5.26 4.26 3.5 6.5 3.5C7.74 3.5 8.93 4.07 10 5.04C11.07 4.07 12.26 3.5 13.5 3.5C15.74 3.5 17.5 5.26 17.5 7.5C17.5 10.24 15.05 12.47 11.05 16.1L10 17.05ZM13.5 5C12.58 5 11.56 5.57 10.75 6.46L10 7.29L9.25 6.46C8.44 5.57 7.42 5 6.5 5C5.12 5 4 6.12 4 7.5C4 9.53 6.22 11.53 9.63 14.81L10 15.15L10.37 14.81C13.78 11.53 16 9.53 16 7.5C16 6.12 14.88 5 13.5 5Z" fill="currentColor"/>
</svg>
